<svg xmlns="http://www.w3.org/2000/svg" width="160" height="80" viewBox="0 0 160 80">
  <rect width="160" height="80" fill="none"/>
  <g transform="translate(20,20)">
    <path d="M0,0H14.58C22.4,0,27.58,5.02,27.58,12.32v0.24c0,8.38-6.54,12.76-14.82,12.76H10.66V40H0V0Z M13.44,17.54 c3.56,0,5.74-2.12,5.74-4.84v-0.24c0-3.14-2.2-4.78-5.8-4.78h-2.72v9.86H13.44Z" fill="#4a5568"/>
    <path d="M35.06,0H53.24c5.92,0,10.52,1.7,13.56,4.72c2.6,2.6,4,6.24,4,10.6v0.24c0,7.5-4.06,12.22-10.04,14.4L72,40 H59.78L50.34,28.66h-0.24H45.72V40H35.06V0z M52.64,18.8c4.72,0,7.44-2.54,7.44-6.3v-0.24c0-4.18-2.9-6.3-7.62-6.3h-7.5v12.84 H52.64z" fill="#4a5568"/>
    <path d="M76.12,0H86.78V15.9h14.58V0h10.66v40h-10.66V26.12H86.78V40H76.12V0z" fill="#4a5568"/>
    <path d="M118.32,0h23.08v8.98h-12.54v6.84h11V24.8h-11v6.78h12.72V40h-23.26V0z" fill="#4a5568"/>
  </g>
</svg> 