<svg xmlns="http://www.w3.org/2000/svg" width="160" height="80" viewBox="0 0 160 80">
  <rect width="160" height="80" fill="none"/>
  <g transform="translate(10,26)">
    <path d="M0,0H10.56c5.9,0,9.636,3.608,9.636,9.064a8.267,8.267,0,0,1-5.368,8.008l7.568,11.968H16.016l-6.644-11H6.336v11H0V0ZM6.336,12.76h4.136a3.329,3.329,0,0,0,3.608-3.7,3.329,3.329,0,0,0-3.608-3.7H6.336Z" fill="#f08f75"/>
    <path d="M31.856,29.48a14.9,14.9,0,0,1-14.96-14.96V0h6.336V14.476a8.624,8.624,0,1,0,17.248,0V0h6.336V14.52A14.9,14.9,0,0,1,31.856,29.48Z" fill="#f08f75"/>
    <path d="M66.736,23.188a14.873,14.873,0,0,1-25.1.528l5.192-3.08a8.477,8.477,0,0,0,14.652-.308Z" fill="#f08f75"/>
    <path d="M66.912,0V29.04H60.576V6.424L51.7,15.356A14.866,14.866,0,0,1,52.18,9.9C52.18,4.4,54.82,0,58.64,0Z" fill="#f08f75"/>
    <path d="M69.652,0h6.336V14.476a8.624,8.624,0,1,0,17.248,0V0h6.336V14.52a14.959,14.959,0,0,1-29.92,0Z" fill="#f08f75"/>
    <path d="M101.772,0h16.5c6.38,0,10.384,3.608,10.384,9.064a8.4,8.4,0,0,1-4.972,7.832v.22a8.414,8.414,0,0,1,5.676,8.14c0,5.94-4.444,9.768-11.4,9.768h-16.192V0Zm15.664,11.748c2.332,0,3.7-1.056,3.7-2.9,0-1.8-1.276-2.728-3.74-2.728h-9.328v5.632Zm1.452,11.44c2.552,0,4.312-1.056,4.312-3.08,0-1.936-1.628-3.036-4.444-3.036h-10.692v6.116Z" fill="#f08f75"/>
  </g>
</svg> 