<svg xmlns="http://www.w3.org/2000/svg" width="160" height="80" viewBox="0 0 160 80">
  <rect width="160" height="80" fill="none"/>
  <g transform="translate(20,16)">
    <path d="M21.5,48C9.626,48,0,38.374,0,26.5S9.626,5,21.5,5,43,14.626,43,26.5,33.374,48,21.5,48Zm0-37C15.71,11,11,15.71,11,21.5S15.71,32,21.5,32,32,27.29,32,21.5,27.29,11,21.5,11Z" fill="#2a3d45"/>
    <path d="M55.368,37.04V7.96h6.336v29.08Z" fill="#2a3d45"/>
    <path d="M80.872,37.04V20.328c0-3.3-1.936-5.456-5.016-5.456-3.08,0-5.28,2.288-5.28,5.544V37.04H64.24V15.224h6.248v2.684C72,15.532,74.8,14.608,77.352,14.608c5.808,0,9.856,3.872,9.856,10.516V37.04Z" fill="#2a3d45"/>
    <path d="M100.232,37.48c-2.948,0-5.764-1.012-7.744-2.772L95.7,30.1a7.033,7.033,0,0,0,4.752,1.848c1.628,0,2.552-.572,2.552-1.584,0-1.056-.88-1.364-2.816-1.936l-1.892-.572c-3.784-1.144-5.808-3.564-5.808-7.128,0-4.4,3.608-7.568,9.064-7.568a11.75,11.75,0,0,1,7.436,2.552l-2.9,4.4A7.573,7.573,0,0,0,101.2,18.216c-1.584,0-2.42.616-2.42,1.584,0,.924.616,1.364,2.508,1.936l1.892.572c4.048,1.188,6.072,3.476,6.072,7.084C109.248,34.18,105.2,37.48,100.232,37.48Z" fill="#2a3d45"/>
  </g>
</svg> 