<svg xmlns="http://www.w3.org/2000/svg" width="160" height="80" viewBox="0 0 160 80">
  <rect width="160" height="80" fill="none"/>
  <g transform="translate(20,24)">
    <path d="M0,0H15.84V5.28H6.336v6.6h8.448v5.28H6.336v6.6H15.84V29.04H0Z" fill="#e76f51"/>
    <path d="M29.976,29.48A12.036,12.036,0,0,1,18.04,17.324V11.8A12.055,12.055,0,0,1,30.064,0,12.3,12.3,0,0,1,38.864,3.564l-3.872,4.136a6.531,6.531,0,0,0-4.928-2.2,5.711,5.711,0,0,0-5.808,5.94v4.8a5.711,5.711,0,0,0,5.808,5.94,6.5,6.5,0,0,0,4.928-2.156L38.864,25.96A12.34,12.34,0,0,1,29.976,29.48Z" fill="#e76f51"/>
    <path d="M60.456,29.04l-6.644-11H52.14v11H45.8V0h10.56c5.9,0,9.636,3.608,9.636,9.064a8.267,8.267,0,0,1-5.368,8.008l7.568,11.968ZM52.14,12.76h4.136a3.329,3.329,0,0,0,3.608-3.7,3.329,3.329,0,0,0-3.608-3.7H52.14Z" fill="#e76f51"/>
    <path d="M85.536,29.04V16.972H75.46V29.04H69.124V0H75.46V11.22h10.076V0h6.336V29.04Z" fill="#e76f51"/>
    <path d="M90.684,0h6.424l8.668,15.356V0h6.292V29.04h-6.38L96.976,13.684V29.04H90.684Z" fill="#e76f51"/>
  </g>
</svg> 