<?xml version="1.0" encoding="UTF-8" standalone="no"?>
<!DOCTYPE svg PUBLIC "-//W3C//DTD SVG 1.1//EN" "http://www.w3.org/Graphics/SVG/1.1/DTD/svg11.dtd">
<svg xmlns="http://www.w3.org/2000/svg" version="1.1" viewBox="0.00 0.00 3235.00 972.00">
<path fill="#000000" d="
  M 415.88 0.00
  Q 429.66 3.64 428.95 17.27
  Q 428.63 23.25 423.09 27.88
  Q 417.76 32.32 411.02 31.32
  C 400.78 29.81 395.02 20.01 398.22 10.22
  Q 400.83 2.24 410.25 0.00
  L 415.88 0.00
  Z"
/>
<circle fill="#000000" cx="413.13" cy="67.82" r="15.82"/>
<circle fill="#000000" cx="413.13" cy="119.95" r="15.82"/>
<path fill="#000000" d="
  M 2180.36 240.89
  Q 2180.88 240.47 2180.92 240.39
  C 2200.74 207.25 2242.39 196.06 2277.70 208.25
  C 2313.93 220.76 2324.98 255.31 2325.00 290.00
  Q 2325.03 357.78 2325.01 407.15
  A 0.62 0.61 0.0 0 1 2324.39 407.76
  L 2292.15 407.76
  A 0.78 0.77 0.0 0 1 2291.37 406.99
  Q 2291.35 314.80 2291.38 291.01
  Q 2291.38 290.12 2290.80 282.50
  Q 2289.88 270.31 2285.34 259.43
  C 2277.50 240.61 2261.29 232.75 2241.52 232.74
  Q 2216.36 232.72 2198.88 250.12
  C 2186.77 262.18 2181.72 277.95 2180.28 295.29
  Q 2179.95 299.19 2179.98 318.72
  Q 2180.01 346.12 2179.97 407.20
  A 0.56 0.56 0.0 0 1 2179.41 407.76
  L 2146.74 407.76
  A 0.75 0.75 0.0 0 1 2145.99 407.01
  L 2145.99 119.01
  A 0.54 0.53 0.0 0 1 2146.53 118.48
  L 2179.43 118.48
  A 0.57 0.56 -0.0 0 1 2180.00 119.04
  L 2180.00 240.72
  A 0.22 0.22 0.0 0 0 2180.36 240.89
  Z"
/>
<circle fill="#000000" cx="288.04" cy="142.00" r="15.82"/>
<circle fill="#000000" cx="538.21" cy="142.00" r="15.83"/>
<circle fill="#000000" cx="167.49" cy="147.62" r="15.82"/>
<circle fill="#000000" cx="658.76" cy="147.61" r="15.82"/>
<circle fill="#000000" cx="413.12" cy="172.08" r="15.83"/>
<circle fill="#000000" cx="351.95" cy="178.11" r="15.82"/>
<circle fill="#000000" cx="474.32" cy="178.11" r="15.82"/>
<circle fill="#000000" cx="293.11" cy="195.94" r="15.82"/>
<circle fill="#000000" cx="533.15" cy="195.94" r="15.82"/>
<circle fill="#000000" cx="178.03" cy="205.50" r="15.83"/>
<circle fill="#000000" cx="648.21" cy="205.51" r="15.82"/>
<path fill="#000000" d="
  M 1025.15 308.16
  C 1025.15 333.15 1033.20 358.64 1055.29 373.21
  C 1074.38 385.80 1098.83 387.08 1119.64 377.40
  Q 1140.82 367.55 1146.27 344.95
  A 0.51 0.51 0.0 0 1 1146.77 344.55
  L 1180.51 344.55
  A 0.47 0.47 0.0 0 1 1180.97 345.11
  C 1174.62 376.65 1150.89 400.64 1120.31 408.87
  C 1089.75 417.10 1055.95 412.73 1029.72 393.37
  C 1002.46 373.24 990.43 341.56 990.42 308.17
  C 990.42 274.78 1002.43 243.10 1029.69 222.96
  C 1055.91 203.59 1089.71 199.21 1120.28 207.43
  C 1150.86 215.65 1174.60 239.63 1180.96 271.17
  A 0.47 0.47 0.0 0 1 1180.50 271.73
  L 1146.76 271.74
  A 0.51 0.51 0.0 0 1 1146.26 271.34
  Q 1140.80 248.74 1119.62 238.90
  C 1098.80 229.22 1074.35 230.51 1055.27 243.11
  C 1033.18 257.69 1025.14 283.18 1025.15 308.16
  Z"
/>
<path fill="#000000" d="
  M 1315.90 203.64
  C 1362.35 204.91 1399.74 234.14 1410.01 279.77
  Q 1413.20 293.96 1412.74 310.87
  Q 1412.28 327.77 1408.32 341.77
  C 1395.58 386.77 1356.65 413.92 1310.20 412.65
  C 1263.75 411.38 1226.36 382.15 1216.10 336.52
  Q 1212.90 322.33 1213.36 305.43
  Q 1213.82 288.52 1217.79 274.52
  C 1230.53 229.52 1269.46 202.37 1315.90 203.64
  Z
  M 1248.15 307.73
  Q 1248.10 316.27 1249.30 324.97
  C 1253.83 357.74 1278.52 383.31 1312.64 383.51
  C 1346.77 383.71 1371.75 358.44 1376.68 325.73
  Q 1377.98 317.05 1378.03 308.50
  Q 1378.08 299.96 1376.88 291.26
  C 1372.35 258.49 1347.67 232.93 1313.54 232.72
  C 1279.42 232.52 1254.43 257.79 1249.51 290.50
  Q 1248.20 299.18 1248.15 307.73
  Z"
/>
<path fill="#000000" d="
  M 1487.86 375.81
  A 0.21 0.20 26.2 0 0 1487.49 375.93
  L 1487.49 495.32
  A 0.79 0.79 0.0 0 1 1486.70 496.11
  L 1454.25 496.11
  A 0.77 0.76 0.0 0 1 1453.48 495.35
  L 1453.48 208.91
  A 0.49 0.49 0.0 0 1 1453.97 208.42
  L 1483.57 208.42
  A 0.77 0.75 87.0 0 1 1484.32 209.11
  L 1487.36 239.94
  A 0.46 0.45 58.9 0 0 1488.19 240.15
  C 1495.81 228.61 1508.39 218.46 1519.98 212.23
  C 1537.63 202.75 1562.17 201.81 1582.21 205.61
  C 1622.11 213.19 1649.77 245.55 1656.89 284.57
  C 1662.28 314.15 1658.06 348.10 1640.09 373.22
  C 1618.08 403.97 1583.83 416.07 1546.60 411.83
  C 1524.82 409.35 1502.36 398.27 1490.53 379.73
  Q 1488.74 376.91 1487.86 375.81
  Z
  M 1488.31 308.26
  C 1488.35 325.52 1492.29 341.76 1502.32 355.84
  C 1515.15 373.84 1534.31 383.17 1556.59 383.13
  C 1578.86 383.09 1597.99 373.69 1610.75 355.64
  C 1620.72 341.52 1624.61 325.26 1624.58 308.01
  C 1624.55 290.75 1620.60 274.50 1610.57 260.43
  C 1597.75 242.42 1578.58 233.09 1556.31 233.13
  C 1534.03 233.17 1514.90 242.58 1502.14 260.63
  C 1492.17 274.74 1488.28 291.00 1488.31 308.26
  Z"
/>
<path fill="#000000" d="
  M 1877.78 348.13
  A 0.47 0.47 0.0 0 1 1878.23 348.73
  Q 1872.36 368.81 1858.46 384.18
  Q 1838.50 406.24 1809.57 411.02
  Q 1792.44 413.86 1775.78 411.89
  C 1733.18 406.84 1701.52 375.69 1693.64 333.89
  Q 1689.90 314.06 1692.04 293.24
  C 1696.06 254.19 1718.76 220.47 1757.01 208.47
  Q 1779.65 201.36 1805.28 204.56
  C 1851.43 210.32 1883.68 249.76 1883.92 295.52
  Q 1883.97 304.54 1883.42 315.28
  A 0.53 0.53 0.0 0 1 1882.89 315.78
  L 1725.50 315.78
  A 0.54 0.53 88.5 0 0 1724.97 316.35
  Q 1725.92 333.57 1731.37 345.64
  Q 1743.42 372.30 1770.63 381.10
  C 1781.81 384.71 1795.71 384.77 1806.75 382.00
  Q 1830.68 376.00 1842.05 353.85
  Q 1843.17 351.68 1844.84 348.55
  A 0.79 0.78 13.6 0 1 1845.54 348.13
  L 1877.78 348.13
  Z
  M 1850.27 289.07
  C 1848.98 250.12 1816.06 227.81 1779.26 233.06
  C 1760.03 235.80 1741.15 247.07 1732.27 264.59
  Q 1726.61 275.76 1725.42 289.22
  A 0.23 0.22 -87.6 0 0 1725.64 289.47
  L 1849.88 289.47
  A 0.39 0.39 0.0 0 0 1850.27 289.07
  Z"
/>
<path fill="#000000" d="
  M 1955.27 243.25
  C 1968.15 219.06 1991.87 204.94 2019.28 203.68
  C 2032.75 203.05 2047.27 205.04 2059.38 210.60
  C 2092.23 225.68 2101.20 257.24 2101.15 291.16
  Q 2101.11 319.63 2101.14 407.26
  A 0.51 0.51 0.0 0 1 2100.63 407.77
  L 2067.99 407.77
  A 0.65 0.64 -0.0 0 1 2067.34 407.13
  Q 2067.37 301.48 2067.37 298.00
  C 2067.40 270.36 2061.44 241.08 2030.56 234.27
  C 1999.73 227.47 1970.38 243.09 1960.69 273.42
  C 1956.84 285.45 1956.12 296.80 1956.14 310.70
  Q 1956.17 325.46 1956.15 407.14
  A 0.63 0.62 -0.0 0 1 1955.52 407.76
  L 1922.88 407.76
  A 0.71 0.71 0.0 0 1 1922.17 407.05
  L 1922.17 208.95
  A 0.52 0.52 0.0 0 1 1922.69 208.43
  L 1952.56 208.43
  A 0.49 0.49 0.0 0 1 1953.05 208.89
  L 1954.96 243.19
  A 0.17 0.16 -33.1 0 0 1955.27 243.25
  Z"
/>
<path fill="#000000" d="
  M 2503.92 373.29
  Q 2495.85 388.34 2482.45 398.79
  C 2466.87 410.95 2449.14 413.16 2429.99 412.52
  C 2414.61 412.01 2400.42 408.45 2387.71 400.19
  C 2364.71 385.23 2357.04 356.22 2365.18 330.69
  C 2375.86 297.21 2416.24 287.61 2447.25 287.54
  Q 2471.70 287.49 2501.86 287.53
  A 0.83 0.83 0.0 0 0 2502.69 286.71
  C 2502.99 262.59 2493.85 241.05 2468.86 234.42
  C 2450.21 229.47 2427.26 233.03 2413.17 246.76
  Q 2403.78 255.90 2401.01 270.27
  A 0.75 0.74 5.0 0 1 2400.27 270.88
  L 2366.77 270.88
  A 0.66 0.66 0.0 0 1 2366.11 270.16
  Q 2368.72 242.22 2390.55 224.45
  C 2412.26 206.78 2439.88 201.39 2467.58 204.39
  C 2481.90 205.94 2496.17 210.25 2507.30 218.62
  C 2527.03 233.49 2536.49 257.72 2536.57 282.19
  Q 2536.80 354.75 2536.64 407.16
  A 0.67 0.66 -89.6 0 1 2535.98 407.82
  L 2507.20 407.82
  A 0.97 0.97 0.0 0 1 2506.23 406.90
  L 2504.37 373.39
  A 0.24 0.24 0.0 0 0 2503.92 373.29
  Z
  M 2502.09 313.78
  Q 2469.34 313.60 2444.77 314.09
  Q 2430.73 314.36 2419.75 318.52
  C 2409.03 322.58 2399.95 332.09 2398.22 343.44
  C 2392.78 379.24 2430.66 388.68 2457.19 381.94
  C 2487.00 374.36 2502.62 342.51 2502.65 314.35
  A 0.57 0.57 0.0 0 0 2502.09 313.78
  Z"
/>
<path fill="#000000" d="
  M 2749.86 242.94
  A 0.39 0.39 0.0 0 0 2750.58 242.76
  L 2753.68 209.10
  A 0.75 0.74 -87.5 0 1 2754.42 208.42
  L 2783.80 208.42
  A 0.75 0.75 0.0 0 1 2784.55 209.17
  Q 2784.50 286.47 2784.52 397.25
  Q 2784.52 404.01 2783.40 413.73
  C 2777.79 462.14 2742.10 496.33 2693.49 500.49
  C 2662.92 503.11 2630.04 496.17 2606.55 475.20
  Q 2584.19 455.24 2579.12 425.49
  A 0.48 0.48 0.0 0 1 2579.59 424.93
  L 2611.98 424.93
  A 0.73 0.71 -8.8 0 1 2612.67 425.42
  C 2624.93 463.15 2665.37 478.20 2701.60 468.82
  C 2717.53 464.70 2732.74 453.65 2740.81 439.31
  C 2747.72 427.05 2750.24 412.74 2750.50 398.50
  Q 2750.60 392.65 2750.56 369.14
  A 0.27 0.27 0.0 0 0 2750.06 368.99
  Q 2736.05 390.92 2713.32 403.27
  Q 2702.95 408.90 2688.38 410.81
  Q 2647.37 416.20 2616.02 394.22
  C 2593.78 378.62 2578.77 354.36 2574.15 327.39
  Q 2572.25 316.30 2572.68 302.45
  C 2573.70 268.72 2589.83 238.90 2617.43 220.14
  C 2639.74 204.99 2668.64 200.25 2694.87 205.74
  C 2716.60 210.28 2737.43 224.00 2749.86 242.94
  Z
  M 2607.26 307.73
  C 2607.35 348.97 2635.90 382.26 2678.47 382.17
  C 2721.04 382.08 2749.44 348.66 2749.35 307.42
  C 2749.26 266.18 2720.72 232.89 2678.15 232.98
  C 2635.57 233.07 2607.17 266.49 2607.26 307.73
  Z"
/>
<path fill="#000000" d="
  M 3011.65 348.13
  A 0.47 0.47 0.0 0 1 3012.10 348.73
  Q 3006.23 368.81 2992.33 384.18
  Q 2972.37 406.24 2943.44 411.02
  Q 2926.31 413.86 2909.65 411.89
  C 2867.05 406.83 2835.40 375.68 2827.52 333.88
  Q 2823.78 314.06 2825.92 293.24
  C 2829.94 254.19 2852.64 220.47 2890.89 208.47
  Q 2913.53 201.36 2939.16 204.56
  C 2985.31 210.32 3017.56 249.76 3017.79 295.52
  Q 3017.84 304.54 3017.29 315.28
  A 0.53 0.53 0.0 0 1 3016.76 315.78
  L 2859.38 315.78
  A 0.54 0.53 88.5 0 0 2858.85 316.35
  Q 2859.80 333.57 2865.25 345.64
  Q 2877.29 372.30 2904.50 381.10
  C 2915.68 384.71 2929.58 384.77 2940.62 382.00
  Q 2964.55 376.00 2975.92 353.85
  Q 2977.04 351.68 2978.71 348.55
  A 0.79 0.78 13.6 0 1 2979.41 348.13
  L 3011.65 348.13
  Z
  M 2984.13 289.07
  C 2982.84 250.12 2949.93 227.82 2913.14 233.06
  C 2893.91 235.80 2875.04 247.07 2866.16 264.58
  Q 2860.50 275.75 2859.31 289.20
  A 0.23 0.22 -87.6 0 0 2859.53 289.45
  L 2983.74 289.47
  A 0.39 0.39 0.0 0 0 2984.13 289.07
  Z"
/>
<path fill="#000000" d="
  M 3235.00 282.41
  L 3235.00 407.21
  L 3234.64 407.67
  A 0.75 0.75 0.0 0 1 3233.67 407.84
  Q 3233.26 407.59 3232.91 407.69
  Q 3232.43 407.83 3232.21 407.82
  C 3220.86 407.81 3202.77 407.43 3202.07 407.97
  A 0.52 0.52 0.0 0 1 3201.23 407.56
  Q 3201.23 305.46 3201.18 294.01
  C 3201.07 267.73 3193.53 240.82 3164.57 234.28
  C 3128.77 226.19 3097.87 248.33 3091.85 284.12
  Q 3090.12 294.46 3090.12 302.50
  Q 3090.14 322.01 3090.11 406.92
  A 0.84 0.84 0.0 0 1 3089.27 407.76
  L 3056.70 407.76
  A 0.67 0.67 0.0 0 1 3056.03 407.09
  L 3056.03 209.17
  A 0.75 0.75 0.0 0 1 3056.78 208.42
  L 3086.19 208.42
  A 0.76 0.76 0.0 0 1 3086.95 209.14
  L 3088.80 242.55
  A 0.30 0.30 0.0 0 0 3089.36 242.68
  C 3106.52 212.08 3137.73 199.92 3171.74 204.55
  C 3199.05 208.27 3221.10 224.87 3229.55 251.45
  Q 3234.22 266.12 3235.00 282.41
  Z"
/>
<circle fill="#000000" cx="413.12" cy="224.22" r="15.82"/>
<circle fill="#000000" cx="238.89" cy="224.94" r="15.82"/>
<circle fill="#000000" cx="587.36" cy="224.94" r="15.82"/>
<circle fill="#000000" cx="323.70" cy="239.98" r="15.83"/>
<circle fill="#000000" cx="502.56" cy="239.98" r="15.83"/>
<circle fill="#000000" cx="191.36" cy="263.91" r="15.82"/>
<circle fill="#000000" cx="634.88" cy="263.92" r="15.82"/>
<circle fill="#000000" cx="413.12" cy="276.34" r="15.82"/>
<circle fill="#000000" cx="245.06" cy="285.38" r="15.82"/>
<circle fill="#000000" cx="581.18" cy="285.38" r="15.82"/>
<circle fill="#000000" cx="96.39" cy="302.80" r="15.82"/>
<circle fill="#000000" cx="729.88" cy="302.81" r="15.81"/>
<circle fill="#000000" cx="152.38" cy="311.44" r="15.82"/>
<circle fill="#000000" cx="673.87" cy="311.45" r="15.83"/>
<circle fill="#000000" cx="413.12" cy="328.48" r="15.83"/>
<circle fill="#000000" cx="265.11" cy="337.65" r="15.82"/>
<circle fill="#000000" cx="561.14" cy="337.66" r="15.83"/>
<circle fill="#000000" cx="186.69" cy="354.94" r="15.82"/>
<circle fill="#000000" cx="639.56" cy="354.94" r="15.82"/>
<path fill="#000000" d="
  M 0.00 359.33
  L 0.00 354.05
  Q 2.12 344.75 9.90 341.86
  C 15.70 339.71 22.05 340.78 26.59 345.09
  C 36.16 354.19 30.99 370.59 17.58 372.22
  C 8.99 373.27 2.11 367.72 0.00 359.33
  Z"
/>
<circle fill="#000000" cx="810.57" cy="356.54" r="15.82"/>
<circle fill="#000000" cx="702.86" cy="365.65" r="15.82"/>
<circle fill="#000000" cx="123.38" cy="365.65" r="15.82"/>
<circle fill="#000000" cx="52.94" cy="422.15" r="15.82"/>
<circle fill="#000000" cx="773.33" cy="422.16" r="15.82"/>
<circle fill="#000000" cx="105.54" cy="424.49" r="15.82"/>
<circle fill="#000000" cx="720.70" cy="424.48" r="15.82"/>
<circle fill="#000000" cx="155.64" cy="440.25" r="15.82"/>
<circle fill="#000000" cx="670.63" cy="440.25" r="15.82"/>
<circle fill="#000000" cx="99.51" cy="485.65" r="15.82"/>
<circle fill="#000000" cx="203.79" cy="485.65" r="15.82"/>
<circle fill="#000000" cx="622.46" cy="485.65" r="15.82"/>
<circle fill="#000000" cx="726.73" cy="485.65" r="15.82"/>
<ellipse fill="#000000" cx="0.00" cy="0.00" transform="translate(1954.06,496.44) rotate(-179.7)" rx="23.60" ry="23.17"/>
<circle fill="#000000" cx="155.64" cy="531.05" r="15.83"/>
<circle fill="#000000" cx="670.63" cy="531.05" r="15.82"/>
<path fill="#000000" d="
  M 1190.05 591.48
  L 1190.05 563.99
  A 0.55 0.55 0.0 0 1 1190.60 563.44
  L 1223.76 563.44
  A 0.91 0.91 0.0 0 0 1224.67 562.62
  L 1228.92 516.32
  A 0.70 0.69 -87.3 0 1 1229.61 515.69
  L 1257.90 515.69
  A 0.72 0.72 0.0 0 1 1258.62 516.41
  L 1258.62 562.91
  A 0.54 0.54 0.0 0 0 1259.16 563.45
  L 1316.67 563.45
  A 0.60 0.60 0.0 0 1 1317.27 564.05
  L 1317.27 591.72
  A 0.45 0.44 -0.0 0 1 1316.82 592.16
  L 1259.09 592.16
  A 0.47 0.46 0.0 0 0 1258.62 592.62
  Q 1258.60 599.82 1258.61 704.98
  Q 1258.61 709.28 1260.02 715.75
  Q 1262.85 728.70 1275.70 731.82
  Q 1282.31 733.42 1286.76 733.53
  Q 1295.72 733.75 1313.43 733.58
  A 0.63 0.62 89.6 0 1 1314.06 734.21
  L 1314.06 762.18
  A 0.81 0.81 0.0 0 1 1313.25 762.99
  Q 1287.75 762.95 1285.50 762.93
  Q 1276.33 762.88 1269.09 761.89
  C 1256.44 760.17 1242.60 754.27 1234.82 743.73
  C 1225.97 731.75 1224.63 715.19 1224.62 700.53
  Q 1224.62 651.43 1224.64 593.35
  A 1.20 1.19 90.0 0 0 1223.45 592.15
  L 1190.72 592.15
  A 0.67 0.67 0.0 0 1 1190.05 591.48
  Z"
/>
<circle fill="#000000" cx="105.54" cy="546.83" r="15.82"/>
<circle fill="#000000" cx="720.70" cy="546.82" r="15.82"/>
<circle fill="#000000" cx="52.93" cy="549.15" r="15.82"/>
<circle fill="#000000" cx="773.33" cy="549.15" r="15.82"/>
<path fill="#000000" d="
  M 1133.05 728.38
  Q 1124.97 743.42 1111.56 753.87
  C 1095.98 766.02 1078.24 768.23 1059.09 767.58
  C 1043.71 767.06 1029.52 763.50 1016.81 755.23
  C 993.82 740.26 986.16 711.24 994.31 685.71
  C 1005.01 652.23 1045.39 642.65 1076.41 642.59
  Q 1100.86 642.55 1131.02 642.60
  A 0.83 0.83 0.0 0 0 1131.85 641.79
  C 1132.17 617.66 1123.03 596.12 1098.04 589.47
  C 1079.39 584.52 1056.44 588.07 1042.34 601.79
  Q 1032.95 610.93 1030.17 625.30
  A 0.75 0.74 5.1 0 1 1029.43 625.91
  L 995.93 625.90
  A 0.66 0.66 0.0 0 1 995.27 625.17
  Q 997.89 597.23 1019.73 579.47
  C 1041.45 561.81 1069.07 556.43 1096.78 559.44
  C 1111.10 561.00 1125.37 565.31 1136.49 573.69
  C 1156.22 588.57 1165.67 612.81 1165.74 637.28
  Q 1165.94 709.85 1165.76 762.26
  A 0.67 0.66 -89.5 0 1 1165.10 762.92
  L 1136.31 762.91
  A 0.97 0.97 0.0 0 1 1135.34 761.99
  L 1133.50 728.48
  A 0.24 0.24 0.0 0 0 1133.05 728.38
  Z
  M 1131.21 669.09
  Q 1098.50 668.80 1073.96 669.21
  Q 1059.94 669.43 1048.96 673.55
  C 1038.24 677.57 1029.14 687.04 1027.37 698.37
  C 1021.82 734.11 1059.63 743.66 1086.15 737.02
  C 1115.94 729.54 1131.65 697.78 1131.77 669.66
  A 0.57 0.57 0.0 0 0 1131.21 669.09
  Z"
/>
<path fill="#000000" d="
  M 1539.27 665.90
  Q 1538.80 682.81 1534.84 696.81
  C 1522.10 741.81 1483.17 768.96 1436.72 767.69
  C 1390.27 766.42 1352.88 737.19 1342.61 691.56
  Q 1339.42 677.36 1339.88 660.46
  Q 1340.34 643.55 1344.30 629.55
  C 1357.04 584.55 1395.97 557.40 1442.43 558.67
  C 1488.88 559.94 1526.27 589.17 1536.53 634.80
  Q 1539.73 649.00 1539.27 665.90
  Z
  M 1374.67 662.77
  Q 1374.62 671.32 1375.83 680.02
  C 1380.37 712.78 1405.06 738.34 1439.19 738.53
  C 1473.31 738.72 1498.29 713.44 1503.20 680.73
  Q 1504.50 672.04 1504.55 663.50
  Q 1504.60 654.96 1503.39 646.26
  C 1498.85 613.49 1474.16 587.93 1440.03 587.74
  C 1405.91 587.55 1380.93 612.83 1376.02 645.54
  Q 1374.72 654.23 1374.67 662.77
  Z"
/>
<path fill="#000000" d="
  M 1613.31 591.01
  A 0.21 0.21 0.0 0 0 1613.70 591.11
  C 1631.85 563.13 1662.24 554.36 1694.06 560.44
  Q 1727.14 566.76 1741.76 596.74
  A 0.34 0.34 0.0 0 0 1742.35 596.77
  C 1744.39 593.66 1745.81 591.30 1747.43 589.24
  C 1767.26 563.99 1796.72 554.89 1827.97 560.07
  C 1853.36 564.29 1873.88 580.21 1882.51 604.74
  C 1887.10 617.81 1888.74 631.70 1888.78 645.75
  Q 1888.95 707.19 1888.77 762.51
  A 0.49 0.49 0.0 0 1 1888.28 763.00
  L 1855.90 763.00
  A 0.61 0.61 0.0 0 1 1855.29 762.39
  Q 1855.28 715.81 1855.29 652.09
  C 1855.29 648.14 1854.95 642.76 1854.77 639.76
  C 1853.39 616.27 1843.13 592.72 1817.01 588.62
  Q 1788.89 584.19 1770.03 603.39
  C 1754.29 619.41 1751.33 641.50 1751.35 663.11
  Q 1751.37 691.55 1751.36 762.15
  A 0.83 0.82 -0.0 0 1 1750.53 762.97
  L 1718.20 762.97
  A 0.84 0.83 -90.0 0 1 1717.37 762.13
  Q 1717.41 677.72 1717.33 645.76
  Q 1717.31 636.01 1714.88 625.39
  C 1709.75 602.97 1695.45 588.44 1671.03 587.80
  Q 1650.10 587.26 1635.07 601.04
  C 1617.78 616.90 1613.86 639.47 1614.10 661.90
  Q 1614.17 668.34 1614.10 762.11
  A 0.86 0.86 0.0 0 1 1613.24 762.97
  L 1580.93 762.97
  A 0.87 0.87 0.0 0 1 1580.06 762.10
  L 1580.06 563.94
  A 0.50 0.50 0.0 0 1 1580.56 563.44
  L 1610.12 563.44
  A 0.53 0.52 86.9 0 1 1610.64 563.91
  L 1613.31 591.01
  Z"
/>
<path fill="#000000" d="
  M 2015.07 663.14
  C 2015.08 629.75 2027.12 598.08 2054.39 577.96
  C 2080.62 558.60 2114.42 554.24 2144.98 562.47
  C 2175.56 570.71 2199.28 594.71 2205.63 626.25
  A 0.47 0.47 0.0 0 1 2205.17 626.81
  L 2171.43 626.80
  A 0.51 0.51 0.0 0 1 2170.93 626.40
  Q 2165.48 603.80 2144.30 593.94
  C 2123.50 584.26 2099.05 585.53 2079.95 598.12
  C 2057.86 612.69 2049.80 638.17 2049.79 663.16
  C 2049.78 688.15 2057.82 713.64 2079.90 728.22
  C 2098.98 740.82 2123.43 742.12 2144.25 732.45
  Q 2165.43 722.61 2170.90 700.01
  A 0.51 0.51 0.0 0 1 2171.40 699.61
  L 2205.14 699.63
  A 0.47 0.47 0.0 0 1 2205.60 700.19
  C 2199.23 731.73 2175.49 755.71 2144.90 763.92
  C 2114.34 772.13 2080.54 767.74 2054.32 748.36
  C 2027.06 728.22 2015.06 696.54 2015.07 663.14
  Z"
/>
<path fill="#000000" d="
  M 2235.61 701.00
  A 0.48 0.47 86.3 0 1 2236.08 700.46
  L 2269.67 700.46
  A 0.76 0.75 83.1 0 1 2270.40 701.04
  Q 2274.12 716.64 2286.76 727.33
  C 2300.19 738.69 2319.31 740.67 2336.26 737.90
  C 2356.07 734.66 2368.80 719.10 2363.08 698.16
  C 2361.00 690.57 2355.81 686.11 2348.06 683.08
  Q 2336.35 678.50 2324.38 675.88
  Q 2307.63 672.21 2302.19 670.81
  C 2279.77 665.02 2249.71 653.64 2245.63 627.23
  Q 2241.81 602.44 2256.05 583.84
  C 2266.56 570.12 2282.72 562.46 2300.52 559.83
  C 2343.60 553.47 2388.01 570.87 2392.77 619.36
  A 0.45 0.44 -2.9 0 1 2392.32 619.85
  L 2359.90 619.85
  A 0.67 0.67 0.0 0 1 2359.24 619.29
  Q 2356.24 600.56 2340.54 592.40
  C 2329.70 586.77 2314.74 586.19 2302.70 588.87
  C 2287.76 592.20 2277.09 603.08 2279.65 619.05
  C 2280.76 625.96 2286.83 631.40 2292.78 634.29
  Q 2307.27 641.31 2324.29 644.94
  Q 2335.97 647.43 2349.98 651.54
  Q 2361.63 654.96 2369.59 658.65
  C 2378.60 662.84 2388.68 670.45 2393.44 679.19
  Q 2397.89 687.37 2398.84 697.45
  C 2400.57 715.92 2396.93 732.21 2383.89 745.63
  C 2368.88 761.08 2347.92 767.39 2326.49 767.62
  Q 2316.29 767.72 2310.02 767.10
  C 2272.14 763.33 2240.67 740.39 2235.61 701.00
  Z"
/>
<rect fill="#000000" x="1937.15" y="563.45" width="34.00" height="199.60" rx="0.57"/>
<circle fill="#000000" cx="123.38" cy="605.64" r="15.82"/>
<circle fill="#000000" cx="702.85" cy="605.64" r="15.82"/>
<path fill="#000000" d="
  M 0.00 617.53
  L 0.00 612.12
  C 2.50 601.89 12.15 596.09 21.92 600.24
  C 29.36 603.39 33.38 611.95 30.71 619.78
  C 27.69 628.62 17.95 632.94 9.35 629.23
  Q 2.10 626.11 0.00 617.53
  Z"
/>
<circle fill="#000000" cx="810.58" cy="614.77" r="15.82"/>
<circle fill="#000000" cx="186.68" cy="616.37" r="15.82"/>
<circle fill="#000000" cx="639.56" cy="616.37" r="15.82"/>
<circle fill="#000000" cx="265.11" cy="633.65" r="15.83"/>
<circle fill="#000000" cx="561.14" cy="633.65" r="15.82"/>
<circle fill="#000000" cx="413.13" cy="642.83" r="15.83"/>
<circle fill="#000000" cx="152.38" cy="659.87" r="15.82"/>
<circle fill="#000000" cx="673.89" cy="659.87" r="15.82"/>
<circle fill="#000000" cx="96.38" cy="668.51" r="15.82"/>
<circle fill="#000000" cx="729.88" cy="668.51" r="15.81"/>
<circle fill="#000000" cx="245.06" cy="685.93" r="15.82"/>
<circle fill="#000000" cx="581.19" cy="685.92" r="15.82"/>
<circle fill="#000000" cx="413.12" cy="694.95" r="15.82"/>
<circle fill="#000000" cx="191.36" cy="707.36" r="15.82"/>
<circle fill="#000000" cx="634.88" cy="707.37" r="15.82"/>
<circle fill="#000000" cx="323.70" cy="731.33" r="15.83"/>
<circle fill="#000000" cx="502.56" cy="731.33" r="15.82"/>
<circle fill="#000000" cx="238.89" cy="746.38" r="15.82"/>
<circle fill="#000000" cx="587.36" cy="746.39" r="15.83"/>
<circle fill="#000000" cx="413.13" cy="747.08" r="15.82"/>
<circle fill="#000000" cx="178.03" cy="765.80" r="15.82"/>
<circle fill="#000000" cx="648.21" cy="765.80" r="15.82"/>
<circle fill="#000000" cx="293.10" cy="775.34" r="15.82"/>
<circle fill="#000000" cx="533.15" cy="775.34" r="15.82"/>
<circle fill="#000000" cx="351.95" cy="793.20" r="15.82"/>
<circle fill="#000000" cx="474.31" cy="793.20" r="15.82"/>
<circle fill="#000000" cx="413.13" cy="799.23" r="15.82"/>
<circle fill="#000000" cx="167.49" cy="823.69" r="15.82"/>
<circle fill="#000000" cx="658.76" cy="823.68" r="15.82"/>
<circle fill="#000000" cx="288.04" cy="829.29" r="15.82"/>
<circle fill="#000000" cx="538.21" cy="829.29" r="15.82"/>
<circle fill="#000000" cx="413.12" cy="851.35" r="15.83"/>
<circle fill="#000000" cx="413.12" cy="903.49" r="15.83"/>
<circle fill="#000000" cx="413.12" cy="955.63" r="15.82"/>
</svg>
