<?xml version="1.0" encoding="UTF-8"?>
<svg id="Layer_1" xmlns="http://www.w3.org/2000/svg" version="1.1" viewBox="0 0 877 425">
  <!-- Generator: Adobe Illustrator 29.5.0, SVG Export Plug-In . SVG Version: 2.1.0 Build 137)  -->
  <path d="M423.9,20.4c.3,0,.5,0,.8,0h29.1c4.9.2,9.9.4,14.8.6,61.8,2.1,123.8,11.3,182.7,29.5,32.5,10,64.3,23.1,93.5,40.1,29.3,17.1,57.6,39.8,75.2,69.3,8.8,14.7,13.8,30.6,15.1,47.7v9.9c-4.5,65.2-69,109.3-122.7,134-32.8,15.1-67.5,26.4-103.1,34.6-43.4,10-87.8,15.9-133.2,17.9-7.4.3-14.8.6-22.2.9h-30.6c-8.5-.3-17-.6-25.4-1-38.5-1.8-76.4-6.5-113.5-14.1-35.9-7.3-71.5-17.7-105.1-31.8-27.6-11.5-53.9-25.7-77.6-44-30.9-23.8-56.7-55.9-59.7-96.3v-10c4.4-60.6,60-102.6,109.4-127.5,36.6-18.5,76-31.7,116.4-41,45.6-10.5,92.2-16.5,139.7-18.1,5.2-.2,10.5-.4,15.7-.6h.7ZM830.5,212.5c0-101.6-175.5-184-392-184h0C222,28.5,46.5,110.9,46.5,212.5c0,101.6,175.5,184,392,184s392-82.4,392-184h0Z"/>
  <path d="M281.7,210.7c0,46.2-35.8,82.9-80.5,89.1-10.1,1.4-21.9.9-32.8.9-.5,0-.9,0-1.1-.1-.3-.1-.4-.5-.3-.8,0-.2.2-.3.4-.3,5.2-1.5,9.8-3.6,12.3-8.5.8-1.6,1.1-5.1,1-10.4,0-.5,0-23.8,0-69.7s0-69.2,0-69.7c.1-5.4-.2-8.8-1-10.4-2.5-4.9-7.1-7-12.3-8.5-.3,0-.5-.4-.4-.7,0-.2.2-.3.3-.4.2,0,.5-.1,1.1-.1,10.9,0,22.7-.5,32.8.9,44.6,6.1,80.5,42.9,80.5,89.1ZM186.2,125.2v171c0,.3.2.5.5.5h1.9c47.2,0,85.5-38.3,85.5-85.6h0v-.9c0-47.3-38.3-85.6-85.5-85.6h-1.9c-.3,0-.5.2-.5.5h0Z"/>
  <path d="M304.3,120.8c9.7,0,14.9,0,15.6,0,.3,0,.6.3.6.6,0,.3-.2.5-.5.6-5,1.3-9.8,3.7-12.1,8.3-.6,1.2-.9,3.6-.9,7.2,0,5.4,0,29.7,0,73.1s0,67.8,0,73.1c0,3.6.3,6,.9,7.2,2.4,4.6,7.2,7,12.1,8.3.3,0,.5.4.5.8,0,.3-.3.5-.6.5-.7,0-5.9,0-15.6,0s-14.9,0-15.6,0c-.3,0-.6-.3-.6-.6,0-.3.2-.5.5-.6,5-1.3,9.8-3.7,12.1-8.3.6-1.2.9-3.6.9-7.2,0-5.4,0-29.7,0-73.1s0-67.8,0-73.1c0-3.6-.3-6-.9-7.2-2.4-4.6-7.2-7-12.1-8.3-.3,0-.5-.4-.5-.8,0-.3.3-.5.6-.5.7,0,5.9,0,15.6,0Z"/>
  <path d="M351.9,213.8v81.8c0,.2.2.3.3.3h0c42.5,0,64.8,0,66.8,0,10.4.2,18-.3,22.6-1.3,13.9-3,26.6-10.8,37-20.5.2-.2.6-.2.8,0,0,0,0,0,0,0l.2.2c.1.1.1.3,0,.4l-22.4,25.4c-.2.2-.5.4-.8.4-74.4,0-115.3,0-122.5,0-.3,0-.6,0-.7-.2-.2-.3-.2-.7,0-.9,0,0,.2-.1.3-.1,5-1.4,9.5-3.6,12-8,.8-1.5,1.2-4.4,1.2-8.8,0-92,0-139.4,0-142.4,0-5-.3-8.2-1-9.6-2.6-5.1-7.2-7.2-12.3-8.7-.3-.1-.5-.4-.4-.8,0-.3.3-.4.6-.4h88.4c.2,0,.5,0,.6.3l22.4,25.4c.2.2.2.6,0,.8h0c-.2.2-.6.2-.8,0-13.9-12.1-29.1-21.3-47.9-21.7-5.9,0-20.5-.1-43.8,0-.3,0-.6.3-.6.6h0v81.9c0,.2.2.3.3.3,10.4,0,17,0,19.8,0,7.9,0,11.9-6.2,13.7-13.1.1-.4.4-.6.8-.5.3,0,.4.3.4.6,0,1.2,0,10.9,0,29.2,0,.9,0,1.5,0,1.8,0,.3-.4.5-.7.4-.2,0-.4-.2-.4-.4-1.5-5-3.5-9.5-7.9-12-1.6-.9-4.3-1.3-8.2-1.3-8.8,0-14.5,0-17.1,0-.4,0-.7.3-.7.7,0,0,0,0,0,0Z"/>
  <path d="M609,206.1c0,0,.1,0,.2,0,25.6-25.9,53.3-54.3,83.4-84.9.2-.2.5-.4.9-.4h33.9c.2,0,.4.2.4.3h0v.2c0,.3-.2.5-.5.6-3.1.3-7.3,1-12.8,2.3-9,2-17.1,5.3-24.2,10-4,2.6-9.8,7.9-17.2,15.7-5.1,5.3-24.9,25.5-59.4,60.6,0,0,0,0,0,.2s0,.2,0,.2c34.5,35.1,54.3,55.3,59.4,60.6,7.5,7.8,13.2,13,17.2,15.7,7.1,4.7,15.2,8,24.2,10,5.5,1.2,9.7,2,12.8,2.3.3,0,.5.3.5.6v.2c0,.2-.2.3-.4.3h-33.9c-.3,0-.6-.1-.9-.4-30-30.7-57.8-59-83.4-84.9,0,0,0,0-.2,0s-.1,0-.1,0c-25.6,25.9-53.3,54.3-83.4,84.9-.2.2-.5.4-.9.4h-33.9c-.2,0-.4-.2-.4-.3h0v-.2c0-.3.2-.5.5-.6,3.1-.3,7.3-1,12.8-2.3,9-2,17.1-5.3,24.2-10,4-2.6,9.8-7.9,17.2-15.7,5.1-5.3,24.9-25.5,59.4-60.6,0,0,0,0,0-.2s0-.2,0-.2c-34.5-35.1-54.3-55.3-59.4-60.6-7.5-7.8-13.2-13-17.2-15.7-7.1-4.7-15.2-8-24.2-10-5.5-1.2-9.7-2-12.8-2.3-.3,0-.5-.3-.5-.6v-.2c0-.2.2-.3.4-.3h33.9c.3,0,.6.1.9.4,30,30.7,57.8,59,83.4,84.9,0,0,0,0,.1,0Z"/>
  <path d="M463.1,256.2c28.1,0,48.6-20,48.6-48,0-21.7,0-32.8,0-33.4.2-4.3-.2-7.3-1.2-9-2.5-4.4-7.1-6.6-12-8-.3,0-.5-.4-.4-.7,0-.1.1-.2.2-.3.1,0,.3-.1.4-.1,3.6,0,13.9,0,30.7,0,.3,0,.6.3.6.6,0,.3-.2.5-.5.6-6,1.7-11.5,4.5-13.1,11,0,.3-.1.6,0,.9,0,15.3,0,28.6,0,39.9-.2,29-24.2,54-53.4,54s-53.2-25-53.4-54c0-11.3,0-24.6,0-39.9,0-.3,0-.6,0-.9-1.6-6.5-7.1-9.3-13.1-11-.3,0-.5-.4-.4-.7,0-.3.3-.5.6-.5,16.8,0,27.1,0,30.7,0,.1,0,.3,0,.4.1.3.2.3.6.1.8,0,.1-.2.2-.3.2-4.8,1.3-9.5,3.6-12,8-1,1.7-1.4,4.7-1.2,9,0,.6,0,11.7,0,33.4,0,28.1,20.5,48,48.6,48Z"/>
</svg>