<?xml version="1.0" encoding="UTF-8"?>
<svg id="Layer_1" xmlns="http://www.w3.org/2000/svg" version="1.1" viewBox="0 0 1098 428">
  <!-- Generator: Adobe Illustrator 29.5.0, SVG Export Plug-In . SVG Version: 2.1.0 Build 137)  -->
  <path d="M835.9,51L783.8,1.4c0,0,0-.2,0-.3,0,0,0,0,.1,0h30.8c.3,0,.6.2.8.5l20.8,49.2c0,.1,0,.2-.1.3,0,0-.2,0-.2,0Z"/>
  <path d="M93.4,428H0v-8.4c6,0,12,0,18,.1,3.4,0,5.5-1.5,6.3-4.8,1.6-6.9,1-15.6,1-24.7,0-36,0-142.1,0-318.2,0-4.4-.3-8.7-1-13-.5-3.3-2.4-5-5.8-5-6.2,0-12.4,0-18.5-.1v-8.5h146.5c.1,0,.2.2.2.3v108.6c0,.1-.1.2-.2.2h-8.2c-.1,0-.3-.1-.3-.3.7-30.7-2.9-96.8-47.5-98.1-4.3-.1-13.2-.1-27,0-.3,0-.6.3-.6.6v165c0,.3.3.6.6.6,8,.1,13.1,0,15.4,0,26.6-1.8,29.5-39.1,29.2-58.5,0-.1,0-.2.2-.2,0,0,0,0,0,0h7.7c.1,0,.2.1.2.2h0v136.6c0,.1,0,.2-.2.2h-7.7c-.1,0-.2-.1-.2-.3h0c.4-18.7-2.7-66.6-30.7-67.1-4.3,0-9,0-14.2,0-.2,0-.4.2-.4.3h0c0,92.2,0,150.1,0,173.5,0,2.5.3,5.1.8,8,.5,3.1,2.5,4.6,5.7,4.5.5,0,8.3,0,23.5,0,.2,0,.3.2.3.3h0v8.2Z"/>
  <path d="M304.5,428h-147.6v-7.9c0-.3.2-.6.5-.6,5.6,0,10.4,0,14.6,0,2.9,0,6.5.2,8-2.7,2.2-4.3,2-11.9,2-16.8,0-209.2.2-318.4.2-327.8,0-3.9-.3-8.2-1-12.7-.6-3.9-2.9-5.8-6.9-5.7-1.9,0-7.6,0-17.1,0-.1,0-.2-.1-.2-.2v-8c0-.1,0-.2.2-.2h147c.3,0,.5.2.5.4l4.7,108.5c0,.1,0,.2-.2.2,0,0,0,0,0,0h-7.8c-.1,0-.2,0-.2-.2-.7-18.1-3.5-35.3-8.3-51.8-5.4-18.4-15.5-39-35.3-45.1-3.3-1-9.2-1.5-17.8-1.3-2.5,0-9,0-19.4,0-.2,0-.3.2-.3.4v165.2c0,.3.3.6.6.6,0,0,0,0,0,0,5.6,0,16.2.9,22.2-1.6,19.9-8.3,22.9-38.9,22.1-57.1,0-.1,0-.3.2-.3,0,0,0,0,0,0h7.7c.1,0,.2,0,.2.2h0v136.7c0,.1,0,.2-.2.2h-7.7c-.1,0-.3-.1-.3-.3.5-18.5-2.2-57.9-23.7-65.9-5.6-2.1-14.9-1.1-20.9-1.2-.2,0-.4.2-.4.4,0,0,0,0,0,0v183.1c0,.3.2.6.6.6,6.8,0,15,0,24.3,0,9.5,0,16.6-1.7,23.6-6.8,8.3-6.1,14.2-14.9,18.5-24.5,9.1-20.6,13.1-44.5,14.1-66.9,0-.1.1-.3.3-.3h7.7c.1,0,.2,0,.2.2,0,0,0,0,0,0l-4.7,108.9Z"/>
  <path d="M498.8,428h-26.2c-20.5-2.5-27.4-20.6-29.3-38.5-3.3-31.5-.5-64.3-1.9-96.5-.3-7-1-14.1-2-21.3-2.9-19.7-11.4-37.2-33.8-38.5-7.1-.4-16.5-.5-28-.2-.3,0-.5.3-.5.6,0,68.7,0,125.4,0,170.1,0,2.8.1,5.6.4,8.3.3,3.9,1.2,7.4,5.3,7.4,6.4,0,12.7,0,19,0,.3,0,.5.2.5.5v8c0,0-87.6,0-87.6,0v-8.1c0-.2.1-.4.3-.4,7.6,0,14,0,19.4,0,5.8-.1,5.7-8.5,5.7-12.9,0-3.5,0-11,0-22.5-.2-41.2-.3-140.2,0-297,0-14.1.2-22.3-1-28.2-.6-3.2-2.6-4.8-5.9-4.9-4.7,0-11.1,0-19.2,0-.2,0-.3-.1-.3-.3h0v-8c0-.1,0-.2.2-.2,43,0,73.7,0,92,0,10.8,0,21.2,1.7,31.3,4.9,23.7,7.5,40.1,25.5,46.4,49.5,5.7,21.8,6.1,43.2,1.1,64.4-7.1,30.4-29.1,53.5-58.9,63.6-.2,0-.3.3-.3.6,0,.1.2.2.3.3,7,1.6,13.8,4.1,20.4,7.5,16.1,8.2,24,22.6,27.7,40.1,2.4,11.3,3.8,25.8,4.3,43.5.4,14.3.4,31.6,0,51.9-.2,11-.2,22.5.3,33.3.1,2.7,1,5.4,2.5,8.1,3.7,6.7,10.2,6.2,17.5,6.4.3,0,.5.3.6.6v7.9ZM376.9,139.2c0,53.4,0,81,0,82.8,0,.1.1.2.2.2,11.2.2,21.3.2,30.2,0,26.3-.7,34.8-22.9,37.9-45.1,1.6-11.3,2.4-23.9,2.4-37.8,0-13.9-.8-26.5-2.3-37.8-3.1-22.2-11.5-44.4-37.8-45.2-8.9-.3-19-.3-30.2-.1-.1,0-.2,0-.2.2,0,0,0,0,0,0,0,1.8,0,29.4,0,82.8Z"/>
  <path d="M746.6,428h-88.6v-8c0-.3.2-.5.5-.5,0,0,0,0,0,0,6.4,0,12.9,0,19.6,0,3.1,0,4.5-3.2,4.8-5.9.5-4.7.7-9.6.7-14.8,0-36.6-.1-131.7,0-285.4,0-.3-.3-.6-.6-.6-.3,0-.5.2-.6.5l-56.5,314.8h-18.6l-57.1-314.8c0-.2-.2-.3-.4-.2-.1,0-.2.1-.2.3,0,132,0,205.7,0,221.2,0,17.5.4,41.1,3.1,61.2.7,5,1.9,9.7,3.7,14.2,2.6,6.4,7.2,9.6,13.9,9.6,3.5,0,7.7,0,12.6,0,.3,0,.5.2.5.5v8c0,0-74.5,0-74.5,0v-7.9c0-.3.2-.6.6-.6h0c9.7,0,16.3,1.8,20.5-8.6,3.8-9.5,5-20.4,5.9-31.1,1.4-17.1,2.1-36.7,2.2-59,.1-133.2.1-212,0-236.5,0-4.7-.1-9.5-.3-14.5-.2-4.4-.8-8.3-1.9-11.6-.9-2.8-3.1-4.2-6.6-4.4-.2,0-5.7,0-16.5,0-.2,0-.3-.1-.3-.3v-7.9c0-.2.1-.3.3-.3h61.3c.3,0,.6.2.7.6l53.3,313.3c0,.2.2.3.4.3.1,0,.2-.1.3-.3l54.6-313.5c0-.2.2-.4.5-.4h62.7c.2,0,.3.1.3.3v7.9c0,.2-.1.3-.3.3,0,0,0,0,0,0-3.8,0-9.4,0-16.7,0-3.3,0-5.4,1.9-6.2,5.4-2,8.8-1.9,19.7-1.9,26.9,0,165.1,0,271.5,0,319,0,4,0,9.5,2,12.5.7,1,1.9,1.7,3.1,1.7h19.8c.2,0,.3.2.3.4h0v8.2Z"/>
  <path d="M1055.6,428h-171v-7.9c0-.3.2-.5.5-.5,8.8,0,14.1,0,15.9,0,8.1,0,7.8-5.5,5.7-11.1-6.1-16.7-21.7-58.7-46.9-126-.1-.3-.5-.6-.8-.6h-64.2c-.2,0-.3.2-.3.4,0,68.9,0,109.8,0,122.6,0,3.1.3,6.5.9,10.2.5,3,2.2,4.5,5,4.5,9.2,0,22.9,0,41.1,0,.3,0,.5.2.5.5v8c0,0-85.3,0-85.3,0v-7.9c0-.3.3-.5.6-.5,3.6,0,9.5,0,17.9,0,3.5,0,5.4-.9,6.2-4.3.7-3.2,1-6.5,1-9.8,0-227.6,0-347.4,0-359.4,0-.4.3-.7.7-.7,0,0,0,0,0,0h15.4c.3,0,.6.2.8.5,3.7,8.4,46.2,108.6,127.6,300.5,5.1,12.1,12.1,29.2,21,51.2,1.8,4.5,3.4,8.1,4.7,10.9,2.7,5.4,6.2,11,12.8,11,5.3,0,11.3,0,18,0,1.6,0,3.1-.9,3.8-2.3.8-1.5,1.3-3.3,1.5-5.4.4-3.6.6-7.2.6-10.8,0-219.5,0-334.3,0-344.3,0-.3-.2-.5-.5-.5-5.6-.1-9.9-.2-12.6-.1-10.4.2-19.1,4.6-25.8,13-9.8,12.1-14.9,28.2-18,43.5-2.8,14.3-4.4,28.2-4.7,41.6,0,.1-.1.3-.3.3h-8.3c-.1,0-.2,0-.2-.2h0V45.7c0-.2.2-.3.3-.3h178.1c.2,0,.3.1.3.3h0v108.6c0,.1,0,.2-.2.2h-8.3c-.1,0-.2-.1-.2-.2-.6-27.8-8.3-97-47.1-98-6.1-.2-10.9-.2-14.3,0-.2,0-.3.2-.3.3,0,166.3,0,274.3,0,324.1,0,10.2-.4,21.8,0,30.7.3,4.6,1.1,8.3,6.2,8.3,7.5,0,14.8,0,21.8,0,.3,0,.6.2.6.5h0s0,8,0,8ZM795,116.6c0-.2-.3-.3-.4-.2-.1,0-.2.2-.2.3v154c0,.2.2.3.3.3h59.8c.2,0,.3-.2.3-.3,0,0,0,0,0-.1l-59.8-154Z"/>
</svg>