<?xml version="1.0" encoding="UTF-8"?>
<svg id="Layer_1" xmlns="http://www.w3.org/2000/svg" version="1.1" viewBox="0 0 310 74">
  <!-- Generator: Adobe Illustrator 29.5.0, SVG Export Plug-In . SVG Version: 2.1.0 Build 137)  -->
  <path d="M191.8,11.8h4.1c.2,0,.3.1.3.3,0,0,0,.2-.1.2l-5.7,4.4c-.5.4-.6,1-.4,1.6,2,4.2,4.4,7.8,7.1,10.9.2.2.2.6,0,.8-.1.1-.3.1-.4.1l-3.7-.5c-.8,0-1.5-.5-1.9-1.1-1.3-1.8-2.7-4-4.1-6.5-.2-.3-.4-.5-.6-.6-.2,0-.5,0-.6.3,0,0,0,.1,0,.2.2,3.1.6,5.5,1.3,7.1.1.2,0,.5-.3.6,0,0-.1,0-.2,0h-4.4c-.4,0-.8-.3-.8-.8,0,0,0,0,0,0,.7-7.9.6-16.1,0-24.5,0-.1,0-.2.2-.3l4.1-2c0,0,.2,0,.2,0,0,0,0,0,0,0v15.3c0,.4.3.7.7.7.2,0,.3,0,.5-.2l3.4-3.1c.3-.2.5-.5.6-.8.2-.4.2-.9.1-1.6,0-.4.2-.7.6-.8,0,0,0,0,0,0Z"/>
  <path d="M48.2,11c-.5,0-1.6-1-1.9-.1,0,.3.1.8,0,1.1-.2.5-1-.5-1.2-1-.2-1,.2-2.3.2-3.5.4-2.7,0-6,2.1-2.4.7,1.1,1.6,2.3,1.9,3.3.2.6-.3,1.1-.5,1.6-.1.4.1,1-.4,1.1h-.1ZM46.2,7.3c-.2.2,0,.5.3.8,0,0,0,0,0,0,.3.3.7.4.9.2.2-.2,0-.5-.3-.8,0,0,0,0,0,0-.3-.3-.7-.4-.9-.2Z"/>
  <rect x="226.7" y="3.9" width="4.7" height="4.7" rx=".9" ry=".9" transform="translate(63.2 164.4) rotate(-45.2)"/>
  <path d="M125.6,29.6h-3.8c-.3,0-.5-.2-.5-.5,0,0,0-.1,0-.2l.7-2c0-.2.1-.5.1-.7,0-8.5,0-14.3,0-17.4,0-1.4-.7-2.6-.9-3.6,0-.3.1-.5.4-.6,0,0,0,0,0,0,2.1-.3,3.5,0,4.2.5,0,0,.1.1.2.2l8.4,17.2c.1.3.4.4.7.2.1,0,.2-.2.3-.3l6.1-17.1c.1-.3.4-.6.8-.7,1.3-.3,2.7-.3,4,0,.3,0,.6.4.6.7,0,.9-.8,1.9-.8,3,0,9.1,0,14.4,0,16.1,0,1.8.3,2.6.8,4.6,0,.2,0,.5-.3.5,0,0,0,0,0,0h-5.1c-.3,0-.6-.3-.6-.6,0,0,0-.1,0-.2l.8-2.4c0,0,0-.2,0-.3l.4-12.2c0-.4-.2-.7-.6-.7-.3,0-.6.2-.7.5l-5.4,15.1c-.2.6-.8.9-1.4.8-1.5-.2-2.6-1-3.1-2.3-1.1-2.5-2.9-6.9-5.4-13.2,0-.2-.3-.3-.5-.2-.2,0-.3.2-.3.4l.3,11.8c0,.1,0,.2,0,.4l.8,2.4c0,.3,0,.5-.3.6,0,0-.1,0-.2,0Z"/>
  <path d="M60.1,9.5c-.4.3-.5,1.1-.4,2.4,0,.6-.3,1.1-.8,1.2-.4,0-.7,0-.9-.4-1.3-2.3-.6-3.2,1.6-4.6.8-.5,1.7-1.4,2.7-2.5.2-.2.6-.3.8,0,0,0,.2.2.2.3.3,1.9.9,3.7,1.8,5.2.3.5.2,1.2-.2,1.7l-1.4,1.3c-.3.3-.9.3-1.2,0-.3-.3-.3-.7-.2-1,.7-1.3,1-2,.9-2.2-.3-1.1-1.3-1.9-2.3-1.7-.2,0-.5.1-.7.3Z"/>
  <path d="M213.9,13.2c-.1-.1-.1-.3,0-.5,0,0,0,0,0,0l4.4-4.4c.2-.2.5-.2.7,0,0,0,.1.2.1.3v2.3c0,.4.2.7.6.8.8.2,1.6.2,2.5,0,.4,0,.9.2,1,.6,0,.3,0,.5-.2.7-.4.3-1.3.4-2.8.3-.5,0-1,.4-1,.9,0,0,0,0,0,0v11.4c0,.9.7,1.5,1.5,1.5h3.7c.4,0,.7.3.7.7,0,.2-.1.4-.3.5-3.4,2.4-10,2.6-10-3.1,0-3.8,0-7.4.3-10.8,0-.3,0-.6-.3-.8l-.8-.8Z"/>
  <path d="M266.2,13.6c2.6,4.2,1.8,7.5-2.5,9.7-.2,0-.3.1-.5.1h-5.4c-.3,0-.6.3-.6.6,0,0,0,.2,0,.2v.3c.4.7,1.1,1.2,1.9,1.2l9,.7c1.1,0,1.9,1,1.8,2.1,0,0,0,0,0,0-.1,1.3-.7,2.5-1.6,3.6-3.5,4.3-8.1,5.3-13.6,3.1-.6-.2-.9-.9-.7-1.5,0-.2.2-.3.3-.4l2.2-2.2c.5-.5,1.4-.6,1.9,0,2.5,2.3,5.2,2.6,8,1.1.5-.3.7-.9.4-1.4,0-.2-.2-.3-.4-.4-3.7-2.2-9-.8-13-3.1-.7-.4-1-1.4-.5-2.1,0-.1.2-.3.3-.4.8-.7,1.8-1.2,2.9-1.7.2,0,.3-.3.2-.4,0,0,0-.1-.1-.2-2.5-2.1-4.5-5.1-2.2-8.2,2.3-3.2,5.8-4,10.3-2.4.3.1.6,0,.8-.2,1.2-1.3,2.5-2.2,4.1-2.6.3,0,.5,0,.6.4,0,0,0,0,0,.1v3.1c0,.3-.2.6-.6.6-.1,0-.2,0-.3-.1-.8-.6-1.6-.8-2.5-.5-.3,0-.4.4-.4.7,0,0,0,0,0,.1ZM257.7,13.8c-1.3,1-1.1,3.5.4,5.5,1.5,2.1,3.9,3,5.2,2,0,0,0,0,0,0,1.3-1,1.1-3.5-.4-5.5-1.5-2.1-3.9-3-5.2-2,0,0,0,0,0,0Z"/>
  <path d="M60.6,11.6c-.7-1,.4-2,1.3-.9.9,1.1-.3,2-1.1,1.1v-.2Z"/>
  <path d="M93.8,22.7c-.4.2-.7,1-.9,2.2,0,.6-.5,1-1,1.1-.4,0-.7-.2-.8-.5-.9-2.5,0-3.2,2.4-4.3.9-.4,1.9-1,3.1-2,.2-.2.6-.2.8,0,0,.1.1.2.1.4,0,2,.3,3.8.9,5.5.2.6,0,1.2-.5,1.6l-1.6,1.1c-.4.3-.9.2-1.2-.2-.2-.3-.2-.7,0-1,.9-1.1,1.3-1.8,1.3-2.1-.1-1.1-1-2.1-1.9-2.1-.2,0-.5,0-.7.2Z"/>
  <path d="M93.9,24.9c-.5-1.1.7-1.9,1.4-.7.7,1.2-.7,1.9-1.3.9v-.2Z"/>
  <path d="M80.2,15.8c-.9-.9-2.8-.9-3.5.4-.4.6-.8,1.4-1.3,1.9-.1,0-.2.2-.3.2-.7.3-1.6-.8-1.3-2.2.2-1.1.9-2,1.9-2.5,4.1-1.9,5.7-5.6,6.8,1.3.3,1.7,1.1,3.5.2,5.1-.7,1.1-2.6,1.7-2.8.6-.4-1.5,1.5-3.3.5-4.7h0Z"/>
  <path d="M151.6,15.6l-.4-2c-.2-.7.2-1.5.9-1.8,3.1-1.4,6.3-1,9.4,1.4,1.9,1.5,2.3,4,2.2,6.2-.2,3.2,0,5.9.5,8.3.1.5-.2,1.1-.8,1.2,0,0,0,0,0,0l-2.2.5c-.5.1-1-.2-1.2-.7-.2-.4-.3-.8-.5-1-.2-.3-.6-.3-.9-.1,0,0,0,0,0,0-1.5,1.2-2.9,1.9-4.2,2.2-.4,0-.9,0-1.3-.2-2.5-1.4-4-3.3-4.6-5.8-.2-.8.2-1.6,1-2l9-4.4c.5-.2.8-.8.8-1.3,0-1.6-.8-3.4-2.7-2.7-1.1.3-2.2,1.2-3.5,2.5-.3.3-.9.4-1.2,0-.1-.1-.2-.3-.2-.4ZM158.9,18.7c-1.7.7-6.5,2.9-5.9,5.3.6,2.7,4,2.4,5.9,1.7.2,0,.3-.2.3-.4v-6.3c.1-.2,0-.3-.2-.3,0,0,0,0-.1,0Z"/>
  <path d="M171,13.3c0,.2,0,.4.3.4.1,0,.2,0,.3,0,2.4-1.9,4.9-3.4,7.9-1.9.4.2.5.6.3,1,0,0,0,0,0,.1l-2.4,3c-.2.3-.6.4-1,.2-1.5-.9-3.4-2-4.9-.5-.2.2-.4.6-.4.9v9.7c.1.1.1.2.2.3l.9,2.7c0,.2,0,.5-.3.6,0,0,0,0-.1,0h-4.8c-.3,0-.5-.2-.5-.5,0,0,0,0,0-.1.9-3.4,1.1-7.6.6-12.9,0,0,0-.2,0-.3l-.8-1.9c-.1-.3,0-.7.3-.9l3.6-1.8c.1,0,.2,0,.3,0,.6.2.7.8.4,1.9Z"/>
  <path d="M250.7,29.7h-4.5c-.3,0-.5-.2-.5-.5,0,0,0-.1,0-.2.9-2.7,1.2-6.6.8-11.7-.1-1.4-1.3-2.5-2.7-2.5h-2.7c-.9,0-1.7.8-1.7,1.7,0,.1,0,.2,0,.3.1.7.1,3.2,0,7.7,0,.9.3,2.4.9,4.5,0,.2,0,.5-.3.6,0,0,0,0-.1,0h-4.7c-.2,0-.5-.2-.5-.4,0,0,0,0,0-.1.8-3.2,1-7.5.5-13.1,0-.3-.1-.6-.2-.9l-.5-1.1c-.1-.3,0-.6.2-.7,0,0,0,0,0,0l3.9-1.9c.2-.1.4,0,.5.2,0,0,0,0,0,0l.4,1.9c0,.2.3.4.5.3,0,0,0,0,.1,0,2.8-1.8,4.6-2.7,5.5-2.7,2.9,0,4.4,1.4,4.5,4.5,0,3.2,0,6.4,0,9.6,0,1.2.7,2.7,1,3.8,0,.3-.1.6-.4.7,0,0,0,0-.1,0Z"/>
  <path d="M211,27.3c.3,0,.6.1.6.4,0,.1,0,.3,0,.4-.3.5-.6.8-1,1-8.9,4-12.3-3-11.6-10.6.6-6.7,7.1-9.1,12.3-5.5.5.3.6,1,.3,1.4,0,0,0,0,0,0l-7.4,9.1c-.3.4-.4,1,0,1.4,1.4,2.3,3.7,3.1,6.8,2.3ZM203.4,22.4c.1,0,.2,0,.3-.1,1.8-2.5,2.9-4.2,3.5-5.1.6-.9.4-2-.4-2.7-.4-.3-1-.6-1.6-.7s-1.3-.1-1.8,0c-1,.3-1.6,1.3-1.4,2.3.2,1,.6,3,1.2,6,0,.1.1.2.2.2Z"/>
  <path d="M231.7,29.7h-4.4c-.2,0-.4-.2-.4-.4,0,0,0,0,0,0,.8-5.4.8-10.4,0-15,0-.4.1-.8.5-1l3.3-1.6c.3-.1.7,0,.8.3,0,0,0,.2,0,.3,0,1.5,0,5.2,0,11.2,0,2.3.5,3.8.9,5.5,0,.3-.1.7-.4.8,0,0-.1,0-.2,0Z"/>
  <path d="M77.3,19.7c.2,0,.2.2.2.3,0,3.2,1,5.8,3.1,7.9,2.8,2.8,8,1.2,12-.2.2,0,.5,0,.6.3,0,0,0,0,0,.1.6,5.4,2,10.8,8.8,8.4.2,0,.5,0,.6.3,0,.2,0,.4-.2.5l-3.5,2.8c-.3.2-.7.3-1,.1l-21.7-9.4c-.3-.1-.5-.4-.5-.7-.2-2-.3-4.2-.8-4.5-.6-.3-2.2,1.2-3.9,2.5-.3.2-.6.2-.9.1l-21.7-9.4c-.3-.1-.6-.5-.6-.8l-.4-4.5c0-.2.1-.5.4-.5.2,0,.4,0,.5.3,2.9,6.5,7.8,3.9,12.1.6.2-.2.5-.1.6,0,0,0,0,0,0,.1,1.7,3.9,4,8.8,8,8.9,2.9,0,5.5-1,7.8-3.1.1-.1.3-.1.4,0Z"/>
  <circle cx="78.3" cy="17.2" r="1.1"/>
  <path d="M70.6,35.2c0,0,0,0,.1,0,0,0,.1,0,.2,0l3.5-2.4c.4-.3.9-.3,1.4-.1l20.6,8.9c.2,0,.3.3.2.5,0,0,0,.1-.1.1-1.6,1.4-3.1,2.8-4.3,4.3-4.3,5-7.8,9.3-10.4,12.7-.2.2-.4.3-.7.2l-9-3.9c-.2,0-.3-.3-.2-.5,0,0,0,0,0,0l5.4-9.4c.1-.2,0-.4-.1-.5-.1,0-.3,0-.4,0l-9.7,7.6c-.2.2-.5.3-.8.2-.3,0-1.2-.4-2.8-1.1-1.6-.7-2.5-1.1-2.7-1.3-.2-.2-.4-.4-.4-.7l-1.1-12.2c0-.2-.2-.3-.4-.3-.1,0-.3.1-.3.3l-3.1,10.4c0,.2-.2.3-.4.2,0,0,0,0,0,0l-9-3.9c-.2-.1-.4-.4-.3-.6.7-4.2,1.4-9.6,2.1-16.2.2-1.9.2-4,.1-6.1,0-.2.2-.4.4-.4,0,0,.1,0,.2,0l20.6,8.9c.4.2.8.6.8,1.1l.7,4.2c0,0,0,.1,0,.2,0,0,0,0,0,0Z"/>
  <path d="M109.5,32.2c-1.2,2.4-2.6,4.1-4.3,5.1-.2.1-.5,0-.6-.1,0,0,0-.2,0-.3.2-1.2,1.1-2.1,2.6-2.8.2,0,.3-.3.2-.5,0,0,0,0,0,0l-.2-.3c0-.1-.2-.1-.3,0,0,0,0,0,0,0l-2.5,2c-.2.2-.6.2-.8,0-.1-.2-.2-.4,0-.5.5-1.5,1.4-2.3,2.7-2.5,1.8-.3,2.8-.5,3-.5.3,0,.5.2.5.5,0,0,0,.2,0,.2Z"/>
  <path d="M260.2,68.8c0-.5,0-.8-.2-1.1-.2-.4-.7-.5-1.1-.3,0,0,0,0,0,0-2.9,1.7-6.8,4.4-8.9-.3-1.8-4.2-2.1-8-.7-11.5,1.6-4.3,4.9-5.6,9.7-3.9.4.1.8,0,1-.5,0,0,0-.1,0-.2.1-2.5-.2-4.5-1-6-.2-.4,0-.9.4-1.1,0,0,0,0,0,0l3.7-1.8c.3-.1.6,0,.8.3,0,0,0,.2,0,.3l-.2,20.1c0,.2,0,.3,0,.5l.8,3.8c0,.3,0,.6-.4.7l-3.2,1.6c-.3.1-.6,0-.7-.2,0,0,0-.2,0-.3ZM254.8,66l3.9-.2c.9,0,1.5-.8,1.5-1.6l-.3-7.6c0-2.1-1.7-3.7-3.6-3.6h0c-1.9,0-3.4,1.8-3.3,3.9l.3,7.6c0,.9.8,1.6,1.6,1.5,0,0,0,0,0,0Z"/>
  <rect x="207.6" y="43.5" width="4.8" height="4.8" rx="1.1" ry="1.1" transform="translate(26.5 157.8) rotate(-43.7)"/>
  <path d="M139.3,56.6c0,1.1,0,1.7,0,1.7,0,.3-.4.4-.6.4,0,0,0,0,0,0-1.6-.8-3.7-1.1-6.3-1-.4,0-.7.3-.7.8v7.5c0,.5.4.9.9.9,3.6.4,6.2-.2,7.7-1.8.2-.3.6-.3.9,0,0,0,.2.2.2.3l.7,3.2c0,.2-.1.5-.3.5,0,0,0,0-.1,0h-14.9c-.3,0-.5-.2-.5-.5,0,0,0,0,0,0,0-.6.1-1.1.2-1.5.3-1,.4-4.5.4-10.4,0-5.9-.1-9.4-.4-10.4-.1-.4-.2-.9-.2-1.5,0-.3.2-.5.5-.5,0,0,0,0,0,0h14.9c.3,0,.5.2.5.5,0,0,0,0,0,.1l-.7,3.2c0,.3-.4.6-.8.5-.1,0-.2,0-.3-.2-1.5-1.6-4.1-2.2-7.7-1.8-.5,0-.9.5-.9.9v7.5c0,.4.3.7.7.8,2.6.1,4.7-.2,6.3-1,.3-.1.6,0,.7.2,0,0,0,0,0,0,0,0,0,.6,0,1.7Z"/>
  <path d="M62.9,53.2c1.3.6,2.1.9,2.4,1.1.4.2.5.6.3.9,0,0,0,0,0,0l-.7,1.3c-.3.5-.1,1.1.4,1.4,0,0,0,0,.1,0l3.7,1.6c.4.2.9,0,1-.4,0,0,0,0,0,0l.9-2c.1-.3.4-.4.7-.3,0,0,0,0,0,0l8.9,3.9c.2,0,.2.2.2.4,0,0,0,0,0,0l-2.4,5.5c-.3.6-.9.8-1.5.6-4.5-1.8-10.1-4.3-16.9-7.2-6.8-3-12.5-5.4-16.8-7.4-.6-.3-.8-.9-.6-1.5l2.4-5.5c0-.2.2-.2.4-.2,0,0,0,0,0,0l8.9,3.9c.3.1.4.4.3.7,0,0,0,0,0,0l-.9,2c-.2.4,0,.9.4,1,0,0,0,0,0,0l3.6,1.6c.5.2,1.1,0,1.3-.5,0,0,0,0,0-.1l.5-1.4c.1-.4.5-.6.9-.5,0,0,0,0,0,0,.3.1,1.2.5,2.5,1Z"/>
  <path d="M184.8,69.2h-5.2c-.3,0-.5-.2-.5-.5,0,0,0-.1,0-.2l.7-1.7c.1-.3.2-.6.2-.9v-10c0-.2,0-.4-.1-.6l-.8-1.8c-.1-.3,0-.6.3-.7l3.3-1.6c.3-.1.6,0,.8.3l.8,1.6c0,.2.3.2.5.2,0,0,0,0,0,0,.3-.3,1.4-1,3.3-1.9,2.5-1.4,4.5-.8,5.9,1.7.2.3.5.4.8.3,3.2-1.2,5.6-4.8,9-1.1.4.4.6.9.6,1.4l.2,11.1c0,.6.1,1.2.3,1.8l.6,2.1c0,.2,0,.5-.3.6,0,0,0,0-.1,0h-4.7c-.3,0-.5-.2-.5-.5s0-.1,0-.2l.9-2.5c0,0,0-.2,0-.3v-8.5c0-1.6-1.3-3-3-3h-1.2c-1.3,0-2.3,1-2.3,2.3v8.8c0,.2,0,.5.1.7l1,2.5c0,.2,0,.5-.2.6,0,0-.1,0-.2,0h-5c-.2,0-.4-.2-.4-.4,0,0,0,0,0-.1l.9-2.6c0-.2.1-.5.1-.8v-8c0-1.6-1.3-3-3-3h-1.7c-1.1,0-2,.9-2,2v8.4c0,.5.1,1.1.3,1.6l1,2.4c0,.2,0,.5-.2.6,0,0-.1,0-.2,0Z"/>
  <path d="M232,68.5c0,.3-.1.6-.4.7,0,0,0,0-.1,0h-4.4c-.3,0-.5-.2-.5-.5,0,0,0-.1,0-.2.9-2.7,1.2-6.5.8-11.6-.1-1.4-1.3-2.5-2.7-2.5h-2.7c-.9,0-1.7.8-1.7,1.7,0,.1,0,.2,0,.3.1.7.1,3.2,0,7.7,0,.9.3,2.4.9,4.5,0,.2,0,.5-.3.6,0,0,0,0-.1,0h-4.7c-.2,0-.5-.2-.5-.5,0,0,0,0,0-.1.8-3.1,1-7.5.5-13,0-.3-.1-.6-.2-.9l-.5-1.1c-.1-.2,0-.5.2-.7,0,0,0,0,0,0l3.9-1.9c.2-.1.4,0,.5.2,0,0,0,0,0,0l.4,1.9c0,.2.3.4.5.3,0,0,0,0,.1,0,2.8-1.8,4.6-2.7,5.5-2.7,2.9,0,4.4,1.5,4.5,4.5,0,3.2,0,6.3,0,9.6,0,1.2.7,2.7.9,3.8Z"/>
  <path d="M164.4,55.2l-.4-2c-.2-.7.2-1.5.9-1.8,3.1-1.4,6.3-1,9.4,1.4,1.9,1.4,2.4,3.9,2.2,6.1-.2,3.1,0,5.9.5,8.3.1.5-.2,1.1-.8,1.2,0,0,0,0,0,0l-2.2.5c-.5.1-1-.2-1.2-.7-.2-.4-.3-.8-.5-1-.2-.3-.6-.3-.9-.1,0,0,0,0,0,0-1.5,1.2-2.9,1.9-4.2,2.2-.4,0-.9,0-1.3-.2-2.5-1.3-4-3.3-4.6-5.8-.2-.8.2-1.6,1-2l9-4.4c.5-.2.8-.8.8-1.3,0-1.6-.8-3.3-2.7-2.7-1.1.4-2.2,1.2-3.4,2.5-.3.3-.8.4-1.2,0-.1-.1-.2-.3-.2-.4ZM171.6,58.3c-1.7.8-6.4,3-5.8,5.4.6,2.6,4,2.2,5.9,1.6.2,0,.3-.2.3-.4v-6.3c0-.2-.1-.3-.3-.3,0,0,0,0-.1,0Z"/>
  <path d="M246.1,66.9c.3,0,.6,0,.6.4,0,.1,0,.3,0,.4-.3.5-.6.8-.9,1-8.9,4-12.3-3-11.7-10.5.6-6.7,7-9.2,12.3-5.6.5.3.6,1,.3,1.4,0,0,0,0,0,0l-7.3,9.2c-.3.4-.4,1,0,1.4,1.5,2.3,3.7,3,6.9,2.3ZM238.4,61.7l4.4-5.5c.3-.4.3-.9,0-1.2-1.2-1.3-2.7-1.7-4.5-1.4-1,.2-1.7,1.2-1.5,2.3,0,0,0,0,0,0l1.3,5.7c0,.1.1.2.2.1,0,0,0,0,.1,0Z"/>
  <path d="M213.2,68.4c0,.3-.1.7-.4.8,0,0-.1,0-.2,0h-4.4c-.2,0-.4-.2-.4-.4,0,0,0,0,0,0,.8-5.4.8-10.3,0-14.8,0-.4.1-.8.5-1l3.3-1.6c.3-.1.7,0,.8.3,0,0,0,.2,0,.3,0,1.4-.1,5.2-.1,11.1,0,2.3.4,3.8.9,5.4Z"/>
  <path d="M147.2,69.1h-3.4c-.2,0-.3-.2-.3-.3,0,0,0-.1,0-.2l5.7-7c.4-.5.4-1.3,0-1.8l-5.9-7.6c-.1-.2-.1-.4,0-.6,0,0,.2,0,.3,0h5.9c.3,0,.5.2.5.5,0,0,0,0,0,0-.1,1.2.5,2.9,1.8,5,.1.2.4.3.7.1,0,0,0,0,.1,0,1.6-1.8,2.3-3.4,2.3-5,0-.3.3-.6.6-.6,0,0,0,0,0,0h3.3c.2,0,.3.1.3.3,0,0,0,.2,0,.2l-5.5,6.8c-.2.3-.2.7,0,1l6.8,8.6c.1.2.1.5,0,.6,0,0-.2,0-.3,0h-5.7c-.2,0-.4-.2-.4-.5h0c0-1.6-.9-3.6-2.8-5.8-.1-.2-.4-.2-.6,0,0,0,0,0,0,0-1.6,2.2-2.4,4-2.4,5.5,0,.4-.3.7-.7.7,0,0,0,0,0,0Z"/>
</svg>