<?xml version="1.0" encoding="UTF-8"?>
<svg id="Layer_1" xmlns="http://www.w3.org/2000/svg" version="1.1" viewBox="0 0 2482 1267">
  <!-- Generator: Adobe Illustrator 29.5.0, SVG Export Plug-In . SVG Version: 2.1.0 Build 137)  -->
  <path d="M475.4,604.3c0,105.6-96,187.2-200.9,168.3-35.8-6.5-66.5-22.7-92-48.4-.6-.6-1.5-.7-2.2-.4-39.7,15.9-85,10.2-120-14.1-34.5-24-55.1-63.1-55.1-105.3s20.7-81.3,55.1-105.3c35-24.3,80.3-29.9,120-14.1.7.3,1.6,0,2.2-.4,25.5-25.8,56.1-42.1,92-48.4,104.9-19,200.9,62.7,200.9,168.3ZM133.3,604.2c0,43.8,16.9,86.1,47.1,117.8.7.7,1.8.9,2.8.6,47.4-21.2,78.5-65.3,78.5-118.4s-31-97.2-78.4-118.4c-.9-.4-2.1,0-2.8.6-30.1,31.7-47.1,73.9-47.1,117.8h-.1Z"/>
  <path d="M720.1,484.5c34.1,1,65.6,16.9,87.5,42.4,35.1,40.7,39.1,101.3,9.3,146.1-23.3,35.1-62.2,56.1-104.4,54.8-42.2-1.3-79.8-24.7-100.9-61.2-27-46.5-19.3-106.7,18.4-145.2,23.6-24,55.8-37.9,90.1-36.9h0ZM716.2,533.3c-37.2,0-67.1,32.7-67.1,72.9h0c0,40.1,30.2,72.7,67.4,72.6,37.2,0,67.1-32.7,67.1-72.9s-30.2-72.7-67.4-72.6Z"/>
  <path d="M1738.8,581.8c0,.3,0,.4.4.4h.3c17.6-24,43.1-39.8,73.9-36.6,41.2,4.3,63.6,37.3,64,76.9v99.8c0,.4-.4.9-.9.9h-48.3c-.4,0-.7-.3-.7-.7h0v-96.6c0-3.4-.7-7.6-1.9-12.6-4.4-18.8-17.8-29.9-37.9-30.5-21.8-.7-40.4,14.2-47.1,34.5-1.6,4.9-2.2,12.9-2.1,23.8v81.5c0,.3-.3.6-.6.6h-48.7c-.3,0-.6-.3-.6-.6v-232.1c0-.3.3-.6.6-.6h48.3c.6,0,1,.4,1,1v91.3l.3-.3h0Z"/>
  <path d="M1472,723.1c-.3,0-.4-.3-.4-.4v-232.6s0-.4.4-.4h112.9c13.9-.3,24.1.4,30.7,2.1,46.2,11.6,65.6,59.8,52.6,103-9.8,32.3-37,52-70.5,52.3h-72.9c-.4,0-.7.3-.7.7v74.8c0,.3-.3.6-.6.6h-51.4ZM1524.2,531.1l-.3,75c0,.6.4,1,1,1h58.2c18.5.3,33.5-15.3,33.6-34.4v-7.6c0-19.1-14.8-34.7-33.3-34.8h-58.2c-.6,0-1,.3-1,.7Z"/>
  <path d="M1304.5,590.2c17.2-29.8,44.6-48.4,80.1-44.6,43.4,4.7,62.2,41.2,62.1,81.2v95.7c0,.4-.3.7-.7.7h-48.4c-.4,0-.7-.3-.7-.7h0v-91.1c0-24.1-9-45.2-35.8-48.3-23.1-2.5-43.6,12.9-50.4,34.2-1.8,5.3-2.4,14.8-2.1,28.3v77.2c0,.3,0,.4-.4.4h-49c-.4,0-.7-.3-.7-.7v-170.4c0-.3.3-.6.6-.6h44.3c.4,0,.7.3.7.7h0v37.8s0,.3.3.3h.3Z"/>
  <path d="M2139.4,590.2c17-29.8,44.6-48.4,80.1-44.6,43.3,4.7,62.1,41,62.1,81v95.5c0,.4-.3.7-.7.7h-48.4c-.4,0-.7-.3-.7-.7s0,0,0,0v-91.1c0-24.1-9-45.2-35.8-48.3-23.1-2.5-43.6,12.9-50.4,34.2-1.8,5.3-2.4,14.8-2.1,28.3v77.2c0,.3,0,.4-.4.4h-49c-.4,0-.7-.3-.7-.7v-170.2c0-.3.3-.6.6-.6h44.3c.4,0,.7.3.7.7v37.8s0,.3.3.3h.3Z"/>
  <path d="M1110.1,652.3c-.4,0-.7.3-.7.7h0c6.4,28,28.9,43.4,57.6,35.7,8.1-2.2,15-6.7,20.3-13.5.4-.6,1.2-.9,1.9-.9h45c.3,0,.6.3.6.6v.3c-9.8,19.9-24.1,34.4-43.1,43.6-27.4,13.2-59.3,11.7-85.2-3.7-64.9-38.7-57.3-134.1,12.3-162.8,41.3-17,89.5,0,111.7,38.1,11.1,19,14.8,39.4,11.6,61.3,0,.4-.4.6-.7.6h-131.2ZM1152.5,619.6h42.2c.3,0,.4,0,.4-.4h0c-4.3-21.3-20.4-36.3-42.8-36.3s-38.5,15-42.7,36.3c0,.3,0,.4.4.6h42.4Z"/>
  <path d="M2076.3,636.7c0,50.2-40.6,90.8-90.8,90.8h0c-50.2,0-90.8-40.6-90.8-90.8s40.6-90.8,90.8-90.8,90.8,40.6,90.8,90.8h0ZM1939.8,636.7c0,27.3,16.3,52.1,45.6,52,29.3,0,45.6-24.9,45.6-52.1s-16.3-52.1-45.6-52c-29.3,0-45.6,24.9-45.6,52.1Z"/>
  <path d="M2344.4,653.3c6.4,27.8,28.9,43.3,57.6,35.6,8.1-2.2,15-6.7,20.3-13.3.4-.6,1.2-.9,1.9-.9h45c.3,0,.6.3.6.6v.3c-9.8,19.9-24.1,34.4-43.1,43.6-27.4,13.2-59.3,11.7-85.2-3.7-64.9-38.7-57.3-134.1,12.3-162.8,41.3-17,89.5,0,111.7,38.1,11.1,19,14.8,39.4,11.6,61.3,0,.4-.4.6-.7.6h-131.1c-.4,0-.7.3-.7.7h-.1ZM2387.5,619.6h42.4c.3,0,.4,0,.4-.4h0c-4.3-21.3-20.4-36.3-42.8-36.3s-38.5,15-42.8,36.3c0,.3,0,.4.4.6h42.4Z"/>
  <path d="M899.6,589.3c0,.3,0,.4.4.4s.3,0,.4-.3c10.8-24.3,30.8-39.8,57.6-42.4,29.2-2.8,56.6,9.3,73.9,32.6,31.3,41.8,22.1,108-23,135.2-25,15.3-56.7,17.2-83.4,4.3-7.4-3.6-15.1-9.6-21-15.1-.6-.4-1.5-.4-1.9,0s-.3.6-.3.9v67c0,.6-.4,1-.9,1h-48.4c-.4,0-.9-.4-.9-.9h0v-219.5c0-.3.3-.6.6-.6h45.9c.6,0,1,.4,1,1h0v36.1h-.1ZM902.5,636c-.7,25.8,15.4,50.4,41.9,54.1,33.3,4.6,54.4-20.4,55.1-51.6.7-31.1-19-57.2-52.4-54.2-26.8,2.4-44,26.1-44.6,51.8h0Z"/>
</svg>