<?xml version="1.0" encoding="UTF-8"?>
<svg id="Layer_1" xmlns="http://www.w3.org/2000/svg" version="1.1" viewBox="0 0 400 100">
  <!-- Generator: Adobe Illustrator 29.5.0, SVG Export Plug-In . SVG Version: 2.1.0 Build 137)  -->
  <path d="M225.3,42.2c.7,5,7.5,7.1,11.9,7.3h12.2c4.5,0,7.3,0,8.2.3,5.5,1.4,9.9,5.7,10,11.6,0,.2-.1.3-.3.3h-26.4c-8.7,0-14.9-1.1-21.4-5.5-9.3-6.2-14-17-11-27.9,3.2-11.6,14.3-19,26.1-20.2,11.1-1.1,24.7,2.8,30.7,12.9,4.4,7.3,2.7,16.5-5.7,19.9-1.5.6-4.3.9-8.3.9-17,0-25.6,0-25.6,0-.1,0-.3,0-.3.2h0c0,.1,0,.1,0,.1ZM222.4,29.6h31.4c.2,0,.4-.2.4-.4h0c-.4-2.5-2.4-4.4-4.6-5.7-4.1-2.3-8.7-3.3-13.7-2.9-5.2.4-9.5,2.6-12.7,6.6-.4.5-.8,1.2-1.1,2,0,.1,0,.3.2.4h.1,0Z"/>
  <path d="M146.5,53.2s.3-.3.5-.7c8.9-18.6,14.3-29.9,16.2-33.9,1.5-3.1,2.7-5,3.8-5.9,3.9-3,8.6-2.3,14.2-2.2,0,0,.1,0,.1.1h0c-11.7,24.6-18.9,39.6-21.7,45.3-1.1,2.4-3,3.9-5.6,4.6-2.2.7-5,.5-7.5.5s-5.2.2-7.5-.5c-2.6-.7-4.4-2.3-5.6-4.6-2.8-5.7-10-20.8-21.7-45.3,0,0,0-.1,0-.2h0c5.6,0,10.3-.7,14.2,2.2,1.1.8,2.4,2.8,3.8,5.9,1.9,4,7.3,15.3,16.2,33.9.3.5.4.7.5.7h.2Z"/>
  <path d="M187.4,10.7c0-.1.1-.3.3-.3h.5c6.9,0,12.6,5.8,12.6,12.8h0v25.6c0,7.1-5.7,12.8-12.6,12.8h-.5c-.1,0-.3-.1-.3-.3h0V10.6h0Z"/>
  <path d="M165.4,68.8c-.1-1,0-1.8.4-2.5,2-3,4.7-4.2,8.5-3.5.3,0,.6.2.9.3,4.6,2.5,6.9,3.7,10.6,6.1,22.9,14.9,53.4,12.4,74.9-3,2.8-2,4.6-3.2,5.7-3.4,4.7-1.5,10.2,0,12.9,4.2.7,1.1.2,2.1-.7,2.9-10.4,9-21.5,15.3-33.2,19-21.8,6.7-46.4,4.5-66.1-7.5-5.2-3.2-9.8-7.1-13.6-11.9-.1-.2-.2-.4-.3-.6h0Z"/>
</svg>